<svg id="レイヤー_1" data-name="レイヤー 1" xmlns="http://www.w3.org/2000/svg" viewBox="0 0 204.27 46.08"><title>again</title><path d="M572.76,280.7h1.87l21.17,44.64H584.42l-2.16-4.46H565.2l-2.09,4.46H551.73Zm-11.52,42.63,4.68-10h-5.83l-4.75,10Zm17.43-10-5-10.95h-.14l-5,10.95Zm7.49,10h6l-4.75-10h-5.83Z" transform="translate(-551.73 -280.7)"/><path d="M623.59,280.7a23.89,23.89,0,0,1,18.07,7.56L634.32,295a15.91,15.91,0,0,0-10.73-4.32c-7.7,0-12.67,5.76-12.67,13,0,8,5.69,13,12.89,13,7.56,0,11.23-4.18,11.52-8.35H623v-9.15h23.76v4.1c0,12.75-7.49,23.4-23.19,23.4-13.68,0-23.4-10.15-23.4-23S609.91,280.7,623.59,280.7Zm-14.76,18.58c1.73-6.19,7.2-10.58,14.76-10.58a18.94,18.94,0,0,1,10.58,3.46l4.18-4c-3.74-3.53-8.57-5.4-14.76-5.4a20.18,20.18,0,0,0-20.31,16.56Z" transform="translate(-551.73 -280.7)"/><path d="M672.41,280.7h1.87l21.17,44.64H684.07l-2.16-4.46H664.84l-2.09,4.46H651.38Zm-11.52,42.63,4.68-10h-5.83l-4.75,10Zm17.43-10-5-10.95h-.14l-5,10.95Zm7.49,10h6l-4.75-10h-5.83Z" transform="translate(-551.73 -280.7)"/><path d="M700.05,282.14h10.58v43.2H700.05ZM708,323.33V307.92h-5.26v15.41Z" transform="translate(-551.73 -280.7)"/><path d="M717.55,282.14h11.16l16.78,25.63V282.14H756v43.2H745l-16.85-25.71v25.71H717.55Zm7.92,41.19V297l-5.26-8.28v34.64Zm27.87-4.82V284.16h-5.18v26.28Z" transform="translate(-551.73 -280.7)"/></svg>