<svg id="レイヤー_1" data-name="レイヤー 1" xmlns="http://www.w3.org/2000/svg" viewBox="0 0 347.27 76.8"><title>japan</title><path d="M508.5,340.23c.84,5.16,2.88,8.4,8.52,8.4s9.36-2.4,9.36-11.16V290.55h17.4v50c0,15.12-11.88,24.36-25.92,24.36-15,0-26.4-9-26.4-24.12Zm30.84-21.12v-25.2h-8.52v25.2Z" transform="translate(-491.47 -288.15)"/><path d="M586.5,288.15h3.12l35.28,74.4h-19l-3.6-7.44H573.9l-3.48,7.44h-19Zm-19.2,71,7.8-16.68h-9.72l-7.92,16.68Zm29-16.68-8.28-18.24h-.24l-8.4,18.24Zm12.48,16.68h10l-7.92-16.68h-9.72Z" transform="translate(-491.47 -288.15)"/><path d="M632.58,290.55H662.7c14.76,0,23.4,10.92,23.4,23,0,13.44-10.08,23-23.4,23H650.1v25.92H632.58Zm13.08,68.64V293.91H637v65.28ZM661,321.51c4.56,0,7.08-4.2,7.08-8.4,0-4-2.4-7.56-7.08-7.56H650.1v16Z" transform="translate(-491.47 -288.15)"/><path d="M728.58,288.15h3.12L767,362.55H748l-3.6-7.44H716l-3.48,7.44h-19Zm-19.2,71,7.8-16.68h-9.72l-7.92,16.68Zm29-16.68-8.28-18.24h-.24l-8.4,18.24Zm12.48,16.68h10l-7.92-16.68h-9.72Z" transform="translate(-491.47 -288.15)"/><path d="M774.66,290.55h18.6l28,42.72V290.55h17.52v72H820.38L792.3,319.71v42.84H774.66Zm13.2,68.64V315.27l-8.76-13.8v57.72Zm46.44-8V293.91h-8.64v43.8Z" transform="translate(-491.47 -288.15)"/></svg>