<svg id="レイヤー_1" data-name="レイヤー 1" xmlns="http://www.w3.org/2000/svg" viewBox="0 0 314.14 46.08"><title>overseas</title><path d="M376.46,222.75c13.61,0,23.26,10.15,23.26,23s-9.65,23-23.26,23-23.26-10.15-23.26-23S362.78,222.75,376.46,222.75Zm0,43.92a20.14,20.14,0,0,0,20.16-16.35h-5.54c-1.73,6.26-7.06,10.73-14.62,10.73s-12.89-4.54-14.62-10.73H356.3A20,20,0,0,0,376.46,266.68Zm0-7.85c7.63,0,12.53-5.76,12.53-13s-4.9-13-12.53-13-12.53,5.76-12.53,13S368.75,258.83,376.46,258.83Z" transform="translate(-353.2 -222.75)"/><path d="M404.32,224.19h11L424,245l8.71-20.81h11L424.7,268.84h-1.3Zm35.93,2h-5.54L425.56,248l2.74,6.19Z" transform="translate(-353.2 -222.75)"/><path d="M448,224.19h28.59v9.36h-18v7.78h16.63v9.22H458.54v7.78h18.79v9.07H448Zm7.92,36.15v-28.8l-5.26-5.33v39.17Z" transform="translate(-353.2 -222.75)"/><path d="M482.44,224.19h18.07c9.29,0,15.34,5.62,15.34,13.75,0,7.56-3.82,11.81-10.23,13.39l11.67,16.06H504l-11-16.13V267.4H482.44Zm7.92,41.19V226.21H485.1v39.17Zm11.16-22.47c2.38,0,4-2.45,4-5a4.57,4.57,0,0,0-4.25-4.75H493v9.72Z" transform="translate(-353.2 -222.75)"/><path d="M531.11,254.72a4.5,4.5,0,0,0,4.46,4.54c2.66,0,4.32-1.51,4.32-3.74,0-3.24-4.25-4.18-7.78-5.4-7.27-2.59-11.31-6-11.31-13.39,0-7.63,6.55-14,14.69-14,9.58,0,14.11,6.12,14.69,14.11h-9.94a4.19,4.19,0,0,0-4.46-4.46c-2.3,0-4.54,1.37-4.54,4.18,0,3.24,4,3.82,7.63,4.9,7.7,2.3,11.3,6.62,11.3,13.39,0,7.63-6.48,14-14.62,14-9.43,0-14.76-6.34-14.76-14.11Zm4.46,12.1v-5.54c-3.67-.07-6-2.16-6.62-4.54h-5.62C523.48,262.14,528.74,266.82,535.58,266.82Zm12-32c-.43-4.25-3.6-10.08-12-10.08v5.62c4.46,0,6,2.66,6.62,4.46Z" transform="translate(-353.2 -222.75)"/><path d="M557.32,224.19h28.59v9.36h-18v7.78h16.63v9.22H567.9v7.78H586.7v9.07H557.32Zm7.92,36.15v-28.8L560,226.21v39.17Z" transform="translate(-353.2 -222.75)"/><path d="M610.53,222.75h1.87l21.17,44.64H622.19L620,262.93H603l-2.09,4.46H589.5ZM599,265.38l4.68-10h-5.83l-4.75,10Zm17.43-10-5-10.95h-.14l-5,10.95Zm7.49,10h6l-4.75-10h-5.83Z" transform="translate(-353.2 -222.75)"/><path d="M648.25,254.72a4.5,4.5,0,0,0,4.46,4.54c2.66,0,4.32-1.51,4.32-3.74,0-3.24-4.25-4.18-7.78-5.4-7.27-2.59-11.31-6-11.31-13.39,0-7.63,6.55-14,14.69-14,9.58,0,14.11,6.12,14.69,14.11H657.4a4.19,4.19,0,0,0-4.46-4.46c-2.3,0-4.54,1.37-4.54,4.18,0,3.24,4,3.82,7.63,4.9,7.7,2.3,11.3,6.62,11.3,13.39,0,7.63-6.48,14-14.62,14-9.43,0-14.76-6.34-14.76-14.11Zm4.46,12.1v-5.54c-3.67-.07-6-2.16-6.62-4.54h-5.62C640.62,262.14,645.88,266.82,652.72,266.82Zm12-32c-.43-4.25-3.6-10.08-12-10.08v5.62c4.46,0,6,2.66,6.62,4.46Z" transform="translate(-353.2 -222.75)"/></svg>