<svg id="レイヤー_1" data-name="レイヤー 1" xmlns="http://www.w3.org/2000/svg" viewBox="0 0 469.1 57.62"><defs><style>.cls-1{fill:#fff;}</style></defs><title>show_menu</title><path class="cls-1" d="M12.87,40a5.63,5.63,0,0,0,5.58,5.67c3.33,0,5.4-1.89,5.4-4.68,0-4-5.31-5.22-9.72-6.75C5,31,0,26.73,0,17.46,0,7.92,8.16,0,18.33,0,30.33,0,36,7.65,36.69,17.64H24.3a5.24,5.24,0,0,0-5.58-5.58c-2.88,0-5.67,1.71-5.67,5.22,0,4,5,4.77,9.54,6.12,9.63,2.88,14.13,8.28,14.13,16.74,0,9.54-8.1,17.46-18.27,17.46C6.66,57.6,0,49.68,0,40Zm5.58,15.12V48.15c-4.59-.09-7.47-2.7-8.28-5.67h-7c.16,6.72,6.73,12.6,15.28,12.6Zm15-40c-.54-5.31-4.5-12.6-15-12.6v7c5.58,0,7.47,3.33,8.28,5.58Z" transform="translate(0.03)"/><path class="cls-1" d="M45.63,1.8H58.86V23H80V1.8H93.11v54H80V34.47H58.86V55.8H45.63Zm9.9,51.48V34.47H49V53.28Zm34.29,0V34.47H83.34V53.28Z" transform="translate(0.03)"/><path class="cls-1" d="M131.39,0c17,0,29.07,12.69,29.07,28.8S148.4,57.6,131.39,57.6s-29.07-12.69-29.07-28.8S114.29,0,131.39,0Zm0,54.9a25.17,25.17,0,0,0,25.2-20.43h-6.93c-2.16,7.83-8.82,13.41-18.27,13.41s-16.11-5.68-18.27-13.41h-6.93C108.53,46.35,118.35,54.9,131.39,54.9Zm0-9.81c9.54,0,15.66-7.2,15.66-16.29S141,12.51,131.39,12.51s-15.66,7.2-15.66,16.29S121.76,45.09,131.39,45.09Z" transform="translate(0.03)"/><path class="cls-1" d="M163.53,1.8h13.86l10.88,25.47,6.57-16.92L191.42,1.8H205.1l10.8,25.4,9.9-25.38h13.77L217.07,57.6h-1.8L202,26.46,189.08,57.6h-1.71Zm36.63,20.61-3.42-7.74-6.48,16.47,3.24,7.65ZM221.22,39l14-34.65h-6.93L217.79,31Z" transform="translate(0.03)"/><path class="cls-1" d="M266,1.8h12.3L292,31,305.9,1.8h12.15v54H304.91v-24L293.12,57.6H291l-11.79-26V55.8H266Zm9.9,51.48V23.76L269.27,9V53.28Zm29.07-28.53V11.07L294,34.56l3,7.2Z" transform="translate(0.03)"/><path class="cls-1" d="M326.69,1.8h35.73V13.5H340v9.7h20.79V34.74H340v9.72h23.49V55.8H326.69ZM336.59,47V11L330,4.32v49Z" transform="translate(0.03)"/><path class="cls-1" d="M369.8,1.8h14l21,32V1.8h13.14v54H404.09L383,23.67V55.8H369.8Zm9.9,51.48V20.34L373.13,10V53.28Zm34.83-6v-43h-6.48V37.2Z" transform="translate(0.03)"/><path class="cls-1" d="M426.5,1.8h13.14V35.64c0,7.2,3.42,9.72,8,9.72,5,0,8.19-2.52,8.19-9.72V1.8h13.24V37.62c0,12.78-9.54,20-21.42,20-12.33,0-21.15-7.56-21.15-20Zm9.9,21.69V4.32h-6.57V23.49Zm29.34,0V4.32h-6.66V23.49Z" transform="translate(0.03)"/></svg>