<svg id="レイヤー_1" data-name="レイヤー 1" xmlns="http://www.w3.org/2000/svg" viewBox="0 0 1161.28 64.02"><defs><style>.cls-1{fill:#fff;}</style></defs><title>title</title><path class="cls-1" d="M13.4,15H0V2H41.8V15H28.2V62H13.4ZM24.6,59.2V15H16.9V59.2Z" transform="translate(0 0.01)"/><path class="cls-1" d="M48.6,2H63.34V25.6h23.5V2h14.6V62H86.84V38.3H63.34V62H48.64Zm11,57.2V38.3H52.34V59.2Zm38.1,0V38.3H90.5V59.2Z" transform="translate(0 0.01)"/><path class="cls-1" d="M111,2h39.7V15h-25V25.8h23.1V38.6H125.7V49.4h26.1V62H111Zm11,50.2v-40l-7.3-7.4V59.2Z" transform="translate(0 0.01)"/><path class="cls-1" d="M184.4,2h25.1C221.8,2,229,11.1,229,21.2c0,11.2-8.4,19.2-19.5,19.2H199V62H184.4Zm10.9,57.2V4.8h-7.2V59.2Zm12.8-31.4c3.8,0,5.9-3.5,5.9-7,0-3.3-2-6.3-5.9-6.3H199V27.8Z" transform="translate(0 0.01)"/><path class="cls-1" d="M238.4,2h14.7V49.4h26.1V62H238.4Zm11,50.2V4.8h-7.3V59.2Z" transform="translate(0 0.01)"/><path class="cls-1" d="M312.34,0h2.6l29.4,62h-15.8l-3-6.2h-23.7l-2.9,6.2h-15.8Zm-16,59.2,6.5-13.9h-8.1l-6.6,13.9Zm24.2-13.9-6.9-15.2h-.2l-7,15.2Zm10.4,13.9h8.3l-6.6-13.9h-8.1Z" transform="translate(0 0.01)"/><path class="cls-1" d="M383.8,0a33.5,33.5,0,0,1,25.7,11l-10.1,9.6a22.3,22.3,0,0,0-15.6-6.7c-10.7,0-17.6,8-17.6,18.1s6.9,18.1,17.6,18.1a22.3,22.3,0,0,0,15.6-6.7l9.8,9.6a34.07,34.07,0,0,1-25.4,11c-19,0-32.5-14.1-32.5-32S364.8,0,383.8,0Zm15.5,16.5L405,11c-5.3-5.4-12.2-8.2-21.2-8.2v8.3a25.78,25.78,0,0,1,15.54,5.4Zm5.5,36.7-5.7-5.8a23.7,23.7,0,0,1-15.3,5.5v8.3c8.8,0,15.4-2.79,21-8Z" transform="translate(0 0.01)"/><path class="cls-1" d="M416.59,2h39.75V15h-25V25.8h23.1V38.6h-23.1V49.4h26.1V62h-40.8Zm11,50.2v-40l-7.3-7.4V59.2Z" transform="translate(0 0.01)"/><path class="cls-1" d="M478.49,44.41a6.25,6.25,0,0,0,6.2,6.3h0c3.7,0,6-2.1,6-5.2,0-4.5-5.9-5.8-10.8-7.5-10.1-3.6-15.7-8.3-15.7-18.6,0-10.6,9.1-19.4,20.4-19.4,13.3,0,19.6,8.5,20.4,19.6h-13.8c0-3.4-2.1-6.2-6.2-6.2-3.2,0-6.3,1.9-6.3,5.8,0,4.5,5.5,5.3,10.6,6.8,10.7,3.2,15.7,9.2,15.7,18.6,0,10.6-9,19.4-20.3,19.4-13.1,0-20.5-8.8-20.5-19.6Zm6.2,16.8v-7.7c-5.1-.1-8.3-3-9.2-6.3h-7.8c.2,7.5,7.5,14,17,14Zm16.7-44.4c-.6-5.9-5-14-16.7-14v7.8c6.2,0,8.3,3.7,9.2,6.2Z" transform="translate(0 0.01)"/><path class="cls-1" d="M540.39,2h14.7V62h-14.7Zm11,57.2V37.8h-7.3V59.2Z" transform="translate(0 0.01)"/><path class="cls-1" d="M586.34,2h15.4l12.1,28.3,7.3-18.8L617.34,2h15.2l12,28.2,11-28.2h15.3l-25,62h-2L629,29.4,614.74,64h-1.9ZM627,24.9l-3.8-8.6L616,34.6l3.6,8.5Zm23.4,18.4L666,4.8h-7.7l-11.7,29.6Z" transform="translate(0 0.01)"/><path class="cls-1" d="M702.69,0h2.65l29.4,62h-15.8l-3-6.2h-23.7l-2.9,6.2h-15.8Zm-16,59.2,6.5-13.9h-8.1l-6.6,13.9Zm24.2-13.9L704,30.1h-.2l-7,15.2Zm10.4,13.9h8.3L723,45.3h-8.1Z" transform="translate(0 0.01)"/><path class="cls-1" d="M741.09,2h15.5l23.3,35.6V2h14.6V62h-15.3l-23.4-35.7V62h-14.7Zm11,57.2V22.6l-7.3-11.5V59.2Zm38.7-6.7V4.8h-7.2V41.3Z" transform="translate(0 0.01)"/><path class="cls-1" d="M814.69,15h-13.4V2h41.8V15h-13.6V62h-14.8Zm11.2,44.2V15h-7.7V59.2Z" transform="translate(0 0.01)"/><path class="cls-1" d="M886,15h-13.4V2h41.75V15h-13.6V62h-14.8Zm11.2,44.2V15h-7.7V59.2Z" transform="translate(0 0.01)"/><path class="cls-1" d="M954.09,0c18.9,0,32.3,14.1,32.3,32S973,64,954.09,64s-32.3-14.1-32.3-32S935.08,0,954.09,0Zm0,61a28,28,0,0,0,28-22.7h-7.75c-2.4,8.7-9.8,14.9-20.3,14.9s-17.9-6.3-20.3-14.9H926C928.68,51.51,939.58,61,954.09,61Zm0-10.9c10.6,0,17.4-8,17.4-18.1s-6.8-18.1-17.4-18.1-17.4,8-17.4,18.1,6.65,18.11,17.4,18.11Z" transform="translate(0 0.01)"/><path class="cls-1" d="M1054.28,0a33.18,33.18,0,0,1,25.1,10.5l-10.2,9.4a22.1,22.1,0,0,0-14.9-6c-10.7,0-17.6,8-17.6,18.1,0,11.1,7.9,18.1,17.9,18.1,10.5,0,15.6-5.8,16-11.6h-17.1V25.8h33v5.7c0,17.7-10.4,32.5-32.2,32.5-19,0-32.5-14.1-32.5-32S1035.28,0,1054.28,0Zm-20.5,25.8c2.4-8.6,10-14.7,20.5-14.7a26.31,26.31,0,0,1,14.7,4.8l5.8-5.6c-5.2-4.9-11.9-7.5-20.5-7.5-14.6,0-25.6,9.7-28.2,23Z" transform="translate(0 0.01)"/><path class="cls-1" d="M1129,0c18.9,0,32.3,14.1,32.3,32s-13.4,32-32.3,32-32.3-14.1-32.3-32S1110,0,1129,0Zm0,61a28,28,0,0,0,28-22.7h-7.7c-2.4,8.7-9.8,14.9-20.3,14.9s-17.9-6.3-20.3-14.9H1101c2.6,13.21,13.5,22.71,28,22.71Zm0-10.9c10.6,0,17.4-8,17.4-18.1s-6.8-18.1-17.4-18.1-17.4,8-17.4,18.1,6.7,18.11,17.4,18.11Z" transform="translate(0 0.01)"/></svg>