<svg id="レイヤー_1" data-name="レイヤー 1" xmlns="http://www.w3.org/2000/svg" viewBox="0 0 620.91 146.42"><defs><style>.cls-1{fill:#fff;}</style></defs><title>title_sp</title><path class="cls-1" d="M111.13,45.57H97.73v-13h41.8v13h-13.6v47h-14.8Zm11.2,44.2V45.57h-7.7v44.2Z" transform="translate(-39.77 -30.56)"/><path class="cls-1" d="M146.33,32.57h14.74v23.6h23.5V32.57h14.6v60h-14.6V68.87h-23.5v23.7h-14.7Zm11,57.2V68.87h-7.26v20.9Zm38.1,0V68.87h-7.2v20.9Z" transform="translate(-39.77 -30.56)"/><path class="cls-1" d="M208.73,32.57h39.7v13h-25v10.8h23.1v12.8h-23.1V80h26.1v12.6h-40.8Zm11,50.2v-40l-7.3-7.4v54.4Z" transform="translate(-39.77 -30.56)"/><path class="cls-1" d="M282.13,32.57h25.1c12.3,0,19.5,9.1,19.5,19.2,0,11.2-8.4,19.2-19.5,19.2h-10.5v21.6h-14.6ZM293,89.77V35.37h-7.2v54.4Zm12.8-31.4c3.8,0,5.9-3.5,5.9-7,0-3.3-2-6.3-5.9-6.3h-9.1v13.3Z" transform="translate(-39.77 -30.56)"/><path class="cls-1" d="M336.13,32.57h14.7V80h26.1v12.6h-40.8Zm11,50.2V35.37h-7.3v54.4Z" transform="translate(-39.77 -30.56)"/><path class="cls-1" d="M410.07,30.57h2.6l29.4,62h-15.8l-3-6.2h-23.7l-2.9,6.2h-15.8Zm-16,59.2,6.5-13.9h-8.1l-6.6,13.9Zm24.2-13.9-6.9-15.2h-.2l-7,15.2Zm10.4,13.9H437l-6.6-13.9h-8.1Z" transform="translate(-39.77 -30.56)"/><path class="cls-1" d="M481.53,30.57a33.5,33.5,0,0,1,25.7,11l-10.1,9.6a22.3,22.3,0,0,0-15.6-6.7c-10.7,0-17.6,8-17.6,18.1s6.9,18.1,17.6,18.1a22.3,22.3,0,0,0,15.6-6.7l9.8,9.6a34.07,34.07,0,0,1-25.4,11c-19,0-32.5-14.1-32.5-32S462.53,30.57,481.53,30.57ZM497,47.07l5.7-5.5c-5.3-5.4-12.2-8.2-21.2-8.2v8.3a25.78,25.78,0,0,1,15.54,5.4Zm5.5,36.7-5.7-5.8a23.7,23.7,0,0,1-15.3,5.5v8.3C490.33,91.77,496.93,89,502.53,83.77Z" transform="translate(-39.77 -30.56)"/><path class="cls-1" d="M514.32,32.57h39.75v13h-25v10.8h23.1v12.8h-23.1V80h26.1v12.6h-40.8Zm11,50.2v-40l-7.3-7.4v54.4Z" transform="translate(-39.77 -30.56)"/><path class="cls-1" d="M576.22,75a6.25,6.25,0,0,0,6.2,6.3h0c3.7,0,6-2.1,6-5.2,0-4.5-5.9-5.8-10.8-7.5-10.1-3.6-15.7-8.3-15.7-18.6,0-10.6,9.1-19.4,20.4-19.4,13.3,0,19.6,8.5,20.4,19.6h-13.8c0-3.4-2.1-6.2-6.2-6.2-3.2,0-6.3,1.9-6.3,5.8,0,4.5,5.5,5.3,10.6,6.8,10.7,3.2,15.7,9.2,15.7,18.6,0,10.6-9,19.4-20.3,19.4-13.1,0-20.5-8.8-20.5-19.6Zm6.2,16.8v-7.7c-5.1-.1-8.3-3-9.2-6.3h-7.8C565.62,85.28,572.92,91.78,582.42,91.78Zm16.7-44.4c-.6-5.9-5-14-16.7-14v7.8c6.2,0,8.3,3.7,9.2,6.2Z" transform="translate(-39.77 -30.56)"/><path class="cls-1" d="M39.77,115h14.7v60H39.77Zm11,57.2v-21.4h-7.3v21.4Z" transform="translate(-39.77 -30.56)"/><path class="cls-1" d="M85.72,115h15.4l12.1,28.3,7.3-18.8-3.8-9.5h15.2l12,28.2,11-28.2h15.3l-25,62h-2l-14.84-34.6L114.12,177h-1.9Zm40.66,22.9-3.8-8.6-7.2,18.3,3.6,8.5Zm23.4,18.4,15.6-38.5h-7.7L146,147.39Z" transform="translate(-39.77 -30.56)"/><path class="cls-1" d="M202.07,113h2.65l29.4,62h-15.8l-3-6.2h-23.7l-2.9,6.2h-15.8Zm-16,59.2,6.5-13.9h-8.1l-6.6,13.9Zm24.2-13.9-6.89-15.2h-.2l-7,15.2Zm10.4,13.9H229l-6.59-13.9h-8.1Z" transform="translate(-39.77 -30.56)"/><path class="cls-1" d="M240.47,115H256l23.3,35.6V115h14.6v60h-15.3l-23.4-35.7V175h-14.7Zm11,57.2v-36.6l-7.3-11.5v48.1Zm38.7-6.7v-47.7H283v36.5Z" transform="translate(-39.77 -30.56)"/><path class="cls-1" d="M314.07,128h-13.4V115h41.8v13h-13.6v47h-14.8Zm11.2,44.2V128h-7.7v44.2Z" transform="translate(-39.77 -30.56)"/><path class="cls-1" d="M385.38,128H372V115h41.75v13h-13.6v47h-14.8Zm11.2,44.2V128h-7.7v44.2Z" transform="translate(-39.77 -30.56)"/><path class="cls-1" d="M453.47,113c18.9,0,32.3,14.1,32.3,32s-13.39,32-32.3,32-32.3-14.1-32.3-32S434.46,113,453.47,113Zm0,61a28,28,0,0,0,28-22.7h-7.75c-2.4,8.7-9.8,14.9-20.3,14.9s-17.9-6.3-20.3-14.9h-7.74C428.06,164.5,439,174,453.47,174Zm0-10.9c10.6,0,17.4-8,17.4-18.1s-6.8-18.1-17.4-18.1-17.4,8-17.4,18.1,6.65,18.11,17.4,18.11Z" transform="translate(-39.77 -30.56)"/><path class="cls-1" d="M553.66,113a33.18,33.18,0,0,1,25.1,10.5l-10.2,9.4a22.1,22.1,0,0,0-14.9-6c-10.7,0-17.6,8-17.6,18.1,0,11.1,7.9,18.1,17.9,18.1,10.5,0,15.6-5.8,16-11.6h-17.1v-12.7h33v5.7c0,17.7-10.4,32.5-32.2,32.5-19,0-32.5-14.1-32.5-32S534.66,113,553.66,113Zm-20.5,25.8c2.4-8.6,10-14.7,20.5-14.7a26.31,26.31,0,0,1,14.7,4.8l5.8-5.6c-5.2-4.9-11.9-7.5-20.5-7.5-14.6,0-25.6,9.7-28.2,23Z" transform="translate(-39.77 -30.56)"/><path class="cls-1" d="M628.38,113c18.9,0,32.3,14.1,32.3,32s-13.4,32-32.3,32-32.3-14.1-32.3-32S609.38,113,628.38,113Zm0,61a28,28,0,0,0,28-22.7h-7.7c-2.4,8.7-9.8,14.9-20.3,14.9s-17.9-6.3-20.3-14.9h-7.7c2.6,13.21,13.5,22.71,28,22.71Zm0-10.9c10.6,0,17.4-8,17.4-18.1s-6.8-18.1-17.4-18.1-17.4,8-17.4,18.1,6.7,18.11,17.4,18.11Z" transform="translate(-39.77 -30.56)"/></svg>