<svg id="レイヤー_1" data-name="レイヤー 1" xmlns="http://www.w3.org/2000/svg" viewBox="0 0 121.4 46.08"><title>top</title><path d="M607.88,279.27h-9.65v-9.36h30.1v9.36h-9.79v33.84H607.88Zm8.06,31.83V279.27H610.4V311.1Z" transform="translate(-598.23 -268.47)"/><path d="M656.91,268.47c13.61,0,23.26,10.15,23.26,23s-9.65,23-23.26,23-23.26-10.15-23.26-23S643.23,268.47,656.91,268.47Zm0,43.92A20.14,20.14,0,0,0,677.07,296h-5.54c-1.73,6.26-7.06,10.73-14.62,10.73S644,302.24,642.29,296h-5.54A20,20,0,0,0,656.91,312.39Zm0-7.85c7.63,0,12.53-5.76,12.53-13s-4.9-13-12.53-13-12.53,5.76-12.53,13S649.2,304.54,656.91,304.54Z" transform="translate(-598.23 -268.47)"/><path d="M687.51,269.91h18.07c8.86,0,14,6.55,14,13.83,0,8.06-6,13.83-14,13.83H698v15.55H687.51Zm7.85,41.19V271.92h-5.18V311.1Zm9.22-22.61c2.74,0,4.25-2.52,4.25-5s-1.44-4.54-4.25-4.54H698v9.58Z" transform="translate(-598.23 -268.47)"/></svg>